<?xml version="1.0" encoding="UTF-8"?>
<svg id="_Слой_2" data-name="Слой 2" xmlns="http://www.w3.org/2000/svg" viewBox="0 0 503.24 118.08">
  <defs>
    <style>
      .cls-1 {
        fill: #4bb270;
      }

      .cls-1, .cls-2, .cls-3, .cls-4 {
        stroke-width: 0px;
      }

      .cls-2 {
        fill: #e24793;
      }

      .cls-3 {
        fill: #e5222f;
      }

      .cls-4 {
        fill: #1d1d1b;
      }
    </style>
  </defs>
  <g id="_Слой_1-2" data-name="Слой 1">
    <g>
      <path class="cls-4" d="M147.98,47.4V0h10.01v40.2h24.33v7.2h-34.34Z"/>
      <path class="cls-4" d="M201.02,0v47.4h-10.01V0h10.01Z"/>
      <path class="cls-4" d="M240.07,0h-12.36l-19.45,47.4h10.68l4.57-11.69h20.77l4.58,11.69h10.68L240.07,0ZM226.21,28.82l7.46-19.1h.44l7.48,19.1h-15.38Z"/>
      <path class="cls-4" d="M312.23,0v47.4h-8.9l-26.03-32.29h-.46v32.29h-10.01V0h8.96l26.01,32.31h.49V0h9.95Z"/>
      <path class="cls-4" d="M351.35,0h-12.36l-19.45,47.4h10.68l4.57-11.69h20.77l4.58,11.69h10.68L351.35,0ZM337.49,28.82l7.46-19.1h.43l7.48,19.1h-15.38Z"/>
      <path class="cls-4" d="M147.98,117.36v-47.4h35.39v7.2h-25.38v12.87h22.96v7.2h-22.96v20.14h-10.01Z"/>
      <path class="cls-4" d="M192.49,117.36v-47.4h10.01v40.21h24.33v7.2h-34.34Z"/>
      <path class="cls-4" d="M282.74,93.66c0,5.11-1.12,9.48-3.35,13.12-2.21,3.63-5.23,6.4-9.06,8.33-3.81,1.93-8.14,2.89-12.98,2.89s-9.17-.96-13-2.89c-3.81-1.94-6.83-4.73-9.06-8.36-2.21-3.64-3.32-8.01-3.32-13.1s1.11-9.47,3.32-13.1c2.23-3.64,5.25-6.43,9.06-8.36,3.83-1.93,8.16-2.89,13-2.89s9.16.96,12.98,2.89c3.83,1.93,6.85,4.71,9.06,8.36,2.23,3.63,3.35,7.99,3.35,13.1ZM272.67,93.66c0-3.6-.66-6.63-1.97-9.1-1.29-2.48-3.09-4.36-5.4-5.62-2.3-1.28-4.95-1.92-7.96-1.92s-5.66.64-7.96,1.92c-2.3,1.27-4.11,3.14-5.42,5.62-1.29,2.47-1.94,5.5-1.94,9.1s.65,6.64,1.94,9.12c1.31,2.47,3.12,4.34,5.42,5.62,2.3,1.27,4.95,1.9,7.96,1.9s5.66-.63,7.96-1.9c2.3-1.28,4.1-3.16,5.4-5.62,1.31-2.48,1.97-5.52,1.97-9.12Z"/>
      <path class="cls-4" d="M302.42,117.36l-15.59-47.4h10.76l9.95,34.84h.51l10.63-34.84h9.79l10.66,34.86h.49l9.95-34.86h10.76l-15.59,47.4h-9.87l-11.06-33.26h-.43l-11.09,33.26h-9.87Z"/>
      <path class="cls-4" d="M367.27,117.36v-47.4h35.93v7.2h-25.92v12.87h24.06v7.2h-24.06v12.94h26.14v7.2h-36.15Z"/>
      <path class="cls-4" d="M443.69,98.59c.36-.12.71-.25,1.05-.4,2.91-1.22,5.12-2.94,6.61-5.16,1.51-2.23,2.27-4.88,2.27-7.92s-.75-5.67-2.24-7.94c-1.47-2.29-3.66-4.06-6.55-5.33-2.88-1.27-6.44-1.9-10.68-1.9h-20.72v47.4h10.01v-17.36h10.19l10.86,17.36h11.17l-11.95-18.77ZM423.43,77.14h9.17c2.5,0,4.54.31,6.12.95,1.58.61,2.76,1.53,3.53,2.73.78,1.19,1.16,2.62,1.16,4.3s-.39,3.1-1.16,4.26c-.76,1.14-1.92,2.01-3.51,2.61-1.58.58-3.61.88-6.1.88h-9.22v-15.74Z"/>
      <path class="cls-4" d="M492.85,82.99c-.25-2.02-1.31-3.6-3.18-4.72-1.85-1.13-4.26-1.69-7.23-1.69-2.09,0-3.88.27-5.37.81-1.49.54-2.63,1.27-3.43,2.2-.79.93-1.2,1.98-1.21,3.17,0,.99.26,1.84.78,2.57.54.73,1.27,1.34,2.19,1.85.92.49,1.93.91,3.05,1.25,1.11.34,2.24.62,3.37.86l5.18,1.11c2.09.42,4.09.98,6.02,1.69,1.94.71,3.68,1.6,5.21,2.69,1.55,1.08,2.77,2.38,3.67,3.91.9,1.53,1.35,3.32,1.35,5.37,0,2.78-.83,5.22-2.48,7.34-1.65,2.1-4.05,3.74-7.18,4.93-3.11,1.17-6.88,1.76-11.3,1.76s-8.03-.57-11.19-1.71c-3.15-1.14-5.61-2.81-7.39-5-1.76-2.19-2.72-4.86-2.86-8.01h9.85c.14,1.65.74,3.02,1.78,4.12,1.04,1.1,2.4,1.91,4.07,2.45,1.69.54,3.58.81,5.67.81s4.08-.28,5.72-.83c1.65-.57,2.95-1.36,3.88-2.36.94-1.02,1.41-2.21,1.43-3.56-.02-1.23-.44-2.25-1.27-3.06-.83-.82-1.99-1.5-3.48-2.04-1.47-.56-3.2-1.05-5.18-1.48l-6.29-1.39c-4.55-1-8.15-2.52-10.79-4.56-2.63-2.05-3.94-4.78-3.94-8.17,0-2.79.88-5.24,2.64-7.34,1.78-2.1,4.2-3.73,7.26-4.88,3.06-1.17,6.52-1.76,10.39-1.76s7.36.59,10.3,1.76c2.97,1.16,5.3,2.77,6.99,4.84,1.69,2.05,2.56,4.41,2.62,7.08h-9.63Z"/>
      <path class="cls-1" d="M104.68,43.74c-13.14,12.95-33.15,15.25-41.02,15.64-2.11.11-3.34.08-3.34.08,0,0,0-.17,0-.49,0-2.18-.2-11.26-3.35-21.46V0h6.7v37.52c2.29-7.42,6.13-15.43,12.59-21.8C92.9-.7,120.61,0,120.61,0c0,0,.71,27.32-15.93,43.74Z"/>
      <path class="cls-2" d="M104.68,102.37c-13.14,12.95-33.15,15.24-41.02,15.63-1.32.07-2.3.08-2.84.08-.33,0-.5,0-.5,0,0,0,0-.17,0-.49,0-2.17.2-11.25,3.35-21.45,2.29-7.42,6.13-15.43,12.59-21.8,16.65-16.42,44.36-15.72,44.36-15.72,0,0,.71,27.32-15.93,43.74Z"/>
      <path class="cls-3" d="M60.31,58.96c0,.32,0,.49,0,.49,0,0-1.24.03-3.34-.08-7.87-.39-27.88-2.69-41.01-15.64C-.71,27.33,0,0,0,0,0,0,27.72-.7,44.37,15.72c6.46,6.37,10.3,14.37,12.59,21.79,3.15,10.2,3.35,19.28,3.35,21.46Z"/>
      <path class="cls-1" d="M63.66,59.38v36.76c-3.15,10.2-3.35,19.27-3.35,21.45,0,.32,0,.49,0,.49,0,0-.17,0-.5,0-.55,0-1.53-.01-2.84-.08-7.87-.39-27.88-2.69-41.01-15.63C-.71,85.95,0,58.62,0,58.62c0,0,27.71-.7,44.36,15.72,6.46,6.37,10.3,14.37,12.59,21.78v-36.74c2.11.11,3.34.08,3.34.08,0,0,0-.17,0-.49,0,.32,0,.49,0,.49,0,0,1.24.03,3.34-.08Z"/>
    </g>
  </g>
</svg>